<svg 
 xmlns="http://www.w3.org/2000/svg"
 xmlns:xlink="http://www.w3.org/1999/xlink"
 width="1.069in" height="1.069in">
<path fill-rule="evenodd"  opacity="0.2" fill="rgb(190, 26, 33)"
 d="M38.500,-0.000 C59.763,-0.000 77.000,17.237 77.000,38.500 C77.000,59.763 59.763,77.000 38.500,77.000 C17.237,77.000 -0.000,59.763 -0.000,38.500 C-0.000,17.237 17.237,-0.000 38.500,-0.000 Z"/>
<path fill-rule="evenodd"  opacity="0.4" fill="rgb(190, 26, 33)"
 d="M38.500,11.000 C53.688,11.000 66.000,23.312 66.000,38.500 C66.000,53.688 53.688,66.000 38.500,66.000 C23.312,66.000 11.000,53.688 11.000,38.500 C11.000,23.312 23.312,11.000 38.500,11.000 Z"/>
<path fill-rule="evenodd"  fill="rgb(190, 26, 33)"
 d="M38.000,28.000 C43.523,28.000 48.000,32.477 48.000,38.000 C48.000,43.523 43.523,48.000 38.000,48.000 C32.477,48.000 28.000,43.523 28.000,38.000 C28.000,32.477 32.477,28.000 38.000,28.000 Z"/>
</svg>